<svg xmlns="http://www.w3.org/2000/svg" width="32" height="32" viewBox="0 0 32 32"><path d="M0 0h32v32H0z" fill="none"/><path data-name="Path 8231" d="M30.987 8.383a3.964 3.964 0 00-2.8-2.8c-2.468-.661-12.365-.661-12.365-.661s-9.9 0-12.365.661a3.964 3.964 0 00-2.8 2.8A41.168 41.168 0 00-.005 16a41.172 41.172 0 00.662 7.618 3.963 3.963 0 002.8 2.8c2.468.661 12.365.661 12.365.661s9.9 0 12.365-.661a3.963 3.963 0 002.8-2.8A41.192 41.192 0 0031.648 16a41.188 41.188 0 00-.661-7.617M12.659 20.748v-9.495L20.881 16z" fill="#fff"/></svg>