<svg xmlns="http://www.w3.org/2000/svg" width="32" height="32" viewBox="0 0 32 32"><path d="M0 0h32v32H0z" fill="none"/><g data-name="Group 4829" fill="#fff"><path data-name="Path 8253" d="M16 2.461c-3.677 0-4.138.015-5.581.081a9.95 9.95 0 00-3.287.63 6.632 6.632 0 00-2.4 1.561 6.642 6.642 0 00-1.559 2.398 9.932 9.932 0 00-.63 3.288c-.065 1.442-.081 1.903-.081 5.58s.015 4.138.081 5.582a9.95 9.95 0 00.63 3.287 6.632 6.632 0 001.561 2.4 6.642 6.642 0 002.4 1.561 9.931 9.931 0 003.285.632c1.444.065 1.9.081 5.582.081s4.138-.015 5.582-.081a9.95 9.95 0 003.287-.63 6.922 6.922 0 003.959-3.959 9.931 9.931 0 00.633-3.291c.065-1.444.081-1.9.081-5.582s-.019-4.138-.081-5.581a9.95 9.95 0 00-.63-3.287 6.632 6.632 0 00-1.561-2.4 6.642 6.642 0 00-2.4-1.561 9.932 9.932 0 00-3.288-.63c-1.445-.063-1.905-.079-5.583-.079zM16 4.9c3.615 0 4.043.014 5.471.079a7.475 7.475 0 012.514.466 4.2 4.2 0 011.557 1.016 4.191 4.191 0 011.012 1.557 7.475 7.475 0 01.466 2.514c.065 1.428.079 1.856.079 5.471s-.014 4.043-.079 5.471a7.475 7.475 0 01-.466 2.514 4.478 4.478 0 01-2.569 2.569 7.475 7.475 0 01-2.514.466c-1.428.065-1.856.079-5.471.079s-4.043-.014-5.471-.079a7.475 7.475 0 01-2.514-.466 4.189 4.189 0 01-1.553-1.016 4.189 4.189 0 01-1.012-1.557 7.475 7.475 0 01-.466-2.514c-.065-1.428-.079-1.856-.079-5.471s.014-4.043.079-5.471a7.475 7.475 0 01.466-2.514 4.2 4.2 0 011.012-1.553 4.191 4.191 0 011.554-1.016 7.475 7.475 0 012.514-.466C11.957 4.914 12.386 4.9 16 4.9z"/><path data-name="Path 8254" d="M16 20.516a4.517 4.517 0 010-9.035 4.517 4.517 0 110 9.035zM16 9.04a6.959 6.959 0 000 13.918A6.959 6.959 0 0016 9.04zm8.984-.126a1.645 1.645 0 11-1.645-1.645 1.645 1.645 0 011.645 1.645"/></g></svg>