<svg width="25" height="25" viewBox="0 0 25 25" fill="none" xmlns="http://www.w3.org/2000/svg"><path d="M12.6 2.5c-2.741 0-3.084.011-4.162.061a7.425 7.425 0 00-2.453.469A4.949 4.949 0 004.2 4.2a4.957 4.957 0 00-1.17 1.785 7.412 7.412 0 00-.47 2.453c-.048 1.078-.06 1.42-.06 4.162s.011 3.088.061 4.165c.017.838.176 1.668.47 2.453A4.949 4.949 0 004.2 21.011a4.957 4.957 0 001.789 1.165 7.412 7.412 0 002.453.47c1.078.049 1.421.061 4.165.061 2.744 0 3.088-.011 4.165-.061a7.423 7.423 0 002.453-.47 5.165 5.165 0 002.955-2.955 7.412 7.412 0 00.47-2.453c.049-1.078.061-1.421.061-4.165 0-2.744-.011-3.088-.061-4.165a7.423 7.423 0 00-.47-2.453A4.949 4.949 0 0021.011 4.2a4.957 4.957 0 00-1.79-1.17 7.412 7.412 0 00-2.453-.47c-1.077-.048-1.42-.06-4.168-.06zm0 1.82c2.7 0 3.017.011 4.083.059a5.57 5.57 0 011.876.348c.439.162.836.42 1.162.755.335.326.593.723.755 1.162.223.6.34 1.235.348 1.876.048 1.065.059 1.385.059 4.083 0 2.698-.011 3.017-.059 4.083a5.578 5.578 0 01-.348 1.876 3.342 3.342 0 01-1.917 1.917c-.6.223-1.235.34-1.876.348-1.065.048-1.385.059-4.083.059-2.698 0-3.017-.011-4.083-.059a5.578 5.578 0 01-1.876-.348 3.127 3.127 0 01-1.162-.755 3.126 3.126 0 01-.755-1.162 5.579 5.579 0 01-.348-1.876C4.331 15.621 4.32 15.3 4.32 12.6s.011-3.017.059-4.083a5.57 5.57 0 01.348-1.876c.162-.439.42-.836.755-1.162a3.127 3.127 0 011.162-.755 5.579 5.579 0 011.876-.345c1.066-.048 1.386-.059 4.08-.059z" fill="#222"/><path d="M12.603 15.974a3.371 3.371 0 110-6.742 3.371 3.371 0 010 6.742zm0-8.564a5.193 5.193 0 100 10.386 5.193 5.193 0 000-10.386zm6.7-.094a1.228 1.228 0 11-2.456 0 1.228 1.228 0 012.456 0" fill="#222"/></svg>