<svg xmlns="http://www.w3.org/2000/svg" width="1220" height="240" viewBox="0 0 1220 240"><defs><style>.cls-2{fill:#f8f8f8}</style></defs><g id="main-icon-bg-logo"><path id="Rectangle_27873" data-name="Rectangle 27873" fill="none" d="M0 0h1220v240H0z"/><g id="Group_27567" data-name="Group 27567"><path id="Path_1" data-name="Path 1" class="cls-2" d="M127.245 66.47C65.446 59.744 13.206 0 13.206 0l-9.75 53.8c52.116 60.527 114.151 65.749 114.151 65.749z" transform="translate(15.898)"/><path id="Path_2" data-name="Path 2" class="cls-2" d="M123.817 85.628C61.978 78.907 9.722 19.141 9.722 19.141L0 72.964C52.094 133.5 114.128 138.7 114.128 138.7z" transform="translate(0 87.079)"/><path id="Path_3" data-name="Path 3" class="cls-2" d="M22.112 74.659c61.833 6.676 114.1 66.5 114.1 66.5l9.711-53.845C93.779 26.746 31.789 21.552 31.789 21.552z" transform="translate(101.721 98.048)"/><path id="Path_4" data-name="Path 4" class="cls-2" d="M25.56 55.516c61.838 6.7 114.106 66.5 114.106 66.5l9.716-53.851C97.26 7.6 35.226 2.42 35.226 2.42z" transform="translate(117.584 11.01)"/><path id="Path_5" data-name="Path 5" class="cls-2" d="M188 10.111a81.035 81.035 0 0126.069 4.129 52.036 52.036 0 0110.949 4.24 90.5 90.5 0 019.8 6.032 49.374 49.374 0 017.941 7.886 44.207 44.207 0 015.651 9.273c3.539 6.865 5.315 14.994 5.315 24.439q-.916 26.271-17.753 40.421-15.684 14.392-49.327 14.4h-39.888v71.725H94.9V10.111zm16.622 54.611c-.616-7.153-3.276-12.308-7.941-15.533A34.2 34.2 0 00179.5 43.7a61 61 0 00-7.364-.449h-24.925v45.455H171.9a58.805 58.805 0 007.37-.433 30.775 30.775 0 0018.683-5.955q8.056-5.943 6.676-17.6" transform="translate(436.563 45.998)"/><path id="Path_6" data-name="Path 6" class="cls-2" d="M221.5 11.352h-40.8a38.053 38.053 0 00-10.26 1c-2.218.7-4.587 2.492-7.011 5.394l-43.822 73.778h-4.379V10.2H63.363v182.516h51.864v-68.3h5.3a36.465 36.465 0 015.931 0l36.973 62.23c2.425 2.9 4.794 4.706 7.011 5.377 2.212.694 5.639 1.027 10.26 1.027h40.8L160.9 102.2z" transform="translate(291.488 46.395)"/><path id="Path_7" data-name="Path 7" class="cls-2" d="M193.245 135.577a9.158 9.158 0 002.839 6.754 9.306 9.306 0 006.849 2.83 27.444 27.444 0 008.653-1.809 11.693 11.693 0 011.411-.117 6.276 6.276 0 014.631 1.926 6.412 6.412 0 011.814 4.595v20.832a5.992 5.992 0 01-3.618 5.76q-14.054 4.487-32.627 4.473-14.087 0-22.838-9.328-8.392-9.073-8.383-22.625V82.9H133.54a6.394 6.394 0 01-4.643-1.931 5.98 5.98 0 01-1.943-4.589V53.99a6.615 6.615 0 016.586-6.543h18.548V19.2a6.663 6.663 0 011.814-4.717 6.6 6.6 0 014.637-1.8h28.142a6.76 6.76 0 014.76 1.8 6.605 6.605 0 011.8 4.717v28.248h19.635a6.625 6.625 0 016.563 6.543v22.252a6.2 6.2 0 01-1.949 4.584 6.3 6.3 0 01-4.615 1.92h-19.63z" transform="translate(584.025 57.69)"/><path id="Path_8" data-name="Path 8" class="cls-2" d="M212.777 18.606q27.9 0 47.619 18.524 20.253 18.954 20.245 46.692v7.769a6.494 6.494 0 01-1.915 4.756 6.57 6.57 0 01-4.788 1.914h-88.524a27.145 27.145 0 009.812 15.843 31.093 31.093 0 0018.464 7.042v.122h2.319a33.814 33.814 0 009.683-1.409 40.527 40.527 0 0017.927-8.7v.122a5.144 5.144 0 014.777-1.393 8.318 8.318 0 014.379 2.564l12.785 13.413a7.44 7.44 0 012.033 5.261 7.078 7.078 0 01-2.173 4.978q-21.152 17.9-52.643 17.9-26.571 0-46.712-19.822-20.522-20.211-20.525-47.935 0-27.9 20.021-47.835 19.867-19.794 47.216-19.811m1.171 31.57a29.27 29.27 0 00-16.913 5.25 31.652 31.652 0 00-11.223 13.568h56.132a31.635 31.635 0 00-11.234-13.568 29.009 29.009 0 00-16.762-5.25" transform="translate(669.525 84.646)"/><path id="Path_9" data-name="Path 9" class="cls-2" d="M243.474 53.373c-8.25 0-15.5 3.219-21.69 9.6a32.824 32.824 0 00-9.274 23.279 32.382 32.382 0 009.274 23.13q9.291 9.6 21.69 9.589 10.441 0 20.911-6.787a7.3 7.3 0 014.772-1.149 6.943 6.943 0 014.385 2.164l14.712 15.111a6.391 6.391 0 011.8 3.7 4.418 4.418 0 01-1.008 3.585q-20.27 18.3-49.058 18.274-28.268 0-48.387-19.817-20.1-19.811-20.111-47.8 0-28.069 20.111-47.835 20.144-19.794 48.387-19.811 28.393 0 47.614 16.226a6.615 6.615 0 012.453 4.867 5.87 5.87 0 01-2.044 4.739l-14.346 14.828a7.483 7.483 0 01-4.508 2.042 7.75 7.75 0 01-4.772-1.016q-10.458-6.917-20.911-6.92" transform="translate(788.895 84.646)"/><path id="Path_10" data-name="Path 10" class="cls-2" d="M195.541 17.509a6.586 6.586 0 016.6-6.532h28.108a6.6 6.6 0 016.6 6.532v51.525q14.163-16 36.783-15.993a48.842 48.842 0 0132.75 11.9q14.079 12 14.079 28.768v85.931a6.308 6.308 0 01-1.921 4.589 6.462 6.462 0 01-4.682 1.909h-28.119a6.316 6.316 0 01-4.637-1.909 6.175 6.175 0 01-1.96-4.589v-69.829a19.4 19.4 0 00-6.289-14.311 21.669 21.669 0 00-29.7 0 19.46 19.46 0 00-6.312 14.306v69.827a6.222 6.222 0 01-1.943 4.589 6.39 6.39 0 01-4.654 1.909h-28.229a6.36 6.36 0 01-6.474-6.5z" transform="translate(899.545 49.938)"/></g></g></svg>