<svg xmlns="http://www.w3.org/2000/svg" width="107" height="20" viewBox="0 0 107 20"><path d="M0 0h107v20H0z" fill="none"/><path data-name="Path 1" d="M12.49 5.46C7.098 4.907 2.54 0 2.54 0l-.851 4.419a16.559 16.559 0 009.96 5.4z" fill="#00abe9"/><path data-name="Path 2" d="M10.8 14.183C5.408 13.633.848 8.724.848 8.724L0 13.145a16.542 16.542 0 009.958 5.4z" fill="#00abe9"/><path data-name="Path 3" d="M10.805 14.185c5.4.548 9.956 5.462 9.956 5.462l.847-4.423a16.547 16.547 0 00-9.959-5.4z" fill="#1a1818"/><path data-name="Path 4" d="M12.49 5.464c5.4.551 9.956 5.462 9.956 5.462l.848-4.423a16.538 16.538 0 00-9.96-5.4z" fill="#1a1818"/><path data-name="Path 5" d="M54.496 4.609a7.474 7.474 0 012.275.339 4.715 4.715 0 01.955.348 8 8 0 01.855.5 4.193 4.193 0 01.693.648 3.6 3.6 0 01.493.762 4.114 4.114 0 01.464 2.007 4.2 4.2 0 01-1.549 3.32 6.491 6.491 0 01-4.3 1.183h-3.485v5.882h-4.524V4.609zm1.45 4.485a1.6 1.6 0 00-.693-1.276 3.114 3.114 0 00-1.5-.451 5.65 5.65 0 00-.643-.037h-2.174v3.733h2.154a5.447 5.447 0 00.643-.036 2.8 2.8 0 001.63-.489 1.408 1.408 0 00.582-1.445" fill="#1a1818"/><path data-name="Path 6" d="M44.76 4.743h-3.561a3.519 3.519 0 00-.9.082 1.409 1.409 0 00-.612.443l-3.818 6.06h-.382V4.65h-4.525v14.989h4.525v-5.61h.462a3.38 3.38 0 01.517 0l3.226 5.111a1.382 1.382 0 00.612.442 3.439 3.439 0 00.9.084h3.56l-5.288-7.462z" fill="#1a1818"/><path data-name="Path 7" d="M67.819 15.874a.731.731 0 00.248.555.838.838 0 00.6.232 2.525 2.525 0 00.755-.149 1.082 1.082 0 01.123-.01.565.565 0 01.4.158.51.51 0 01.158.377v1.711a.491.491 0 01-.316.473 9.928 9.928 0 01-2.847.367 2.688 2.688 0 01-1.993-.766 2.545 2.545 0 01-.731-1.858v-5.417h-1.609a.576.576 0 01-.405-.159.478.478 0 01-.17-.377V9.173a.5.5 0 01.17-.379.574.574 0 01.405-.159h1.618v-2.32a.53.53 0 01.158-.387.6.6 0 01.4-.148h2.455a.611.611 0 01.415.148.525.525 0 01.157.387v2.32h1.713a.57.57 0 01.4.159.5.5 0 01.17.379v1.826a.5.5 0 01-.17.376.567.567 0 01-.4.158H67.81z" fill="#00abe9"/><path data-name="Path 8" d="M76.984 8.481a6.053 6.053 0 014.155 1.521 4.911 4.911 0 011.766 3.835v.638a.518.518 0 01-.167.391.592.592 0 01-.418.157h-7.724a2.215 2.215 0 00.856 1.3 2.813 2.813 0 001.611.578v.01h.2a3.121 3.121 0 00.845-.116 3.63 3.63 0 001.564-.714v.01a.467.467 0 01.417-.114.737.737 0 01.382.211l1.116 1.1a.592.592 0 01.177.432.566.566 0 01-.19.409 7.136 7.136 0 01-4.593 1.47 5.815 5.815 0 01-4.076-1.628 5.257 5.257 0 01-.044-7.866 5.821 5.821 0 014.12-1.627m.1 2.593a2.707 2.707 0 00-2.455 1.546h4.9a2.709 2.709 0 00-2.443-1.546" fill="#00abe9"/><path data-name="Path 9" d="M90.077 11.337a2.728 2.728 0 00-2.7 2.7 2.579 2.579 0 00.809 1.9 2.631 2.631 0 001.893.788 3.474 3.474 0 001.825-.557.668.668 0 01.416-.094.621.621 0 01.383.178l1.284 1.241a.513.513 0 01.157.3.348.348 0 01-.088.294 6.388 6.388 0 01-4.28 1.5 5.986 5.986 0 01-4.222-1.628 5.272 5.272 0 010-7.855 6 6 0 014.222-1.627A6.475 6.475 0 0193.93 9.81a.533.533 0 01.214.4.469.469 0 01-.178.389l-1.258 1.222a.672.672 0 01-.393.168.711.711 0 01-.416-.083 3.43 3.43 0 00-1.825-.568" fill="#00abe9"/><path data-name="Path 10" d="M95.549 5.539a.5.5 0 01.169-.379.566.566 0 01.407-.158h2.452a.567.567 0 01.406.158.5.5 0 01.17.379v4.232a4.207 4.207 0 013.209-1.314 4.424 4.424 0 012.858.977 2.949 2.949 0 011.228 2.363v7.059a.5.5 0 01-.168.377.582.582 0 01-.408.157h-2.453a.569.569 0 01-.4-.157.493.493 0 01-.171-.377v-5.735a1.552 1.552 0 00-.549-1.175 1.977 1.977 0 00-2.591 0 1.557 1.557 0 00-.551 1.175v5.735a.5.5 0 01-.17.377.576.576 0 01-.406.157h-2.463a.576.576 0 01-.407-.157.512.512 0 01-.158-.377z" fill="#00abe9"/></svg>